# xmcd
#
# Track frame offsets: 
#        150
#        13766
#        55531
#        83451
#        100097
#        125013
#        163049
#        187473
#        212908
#
# Disc length: 2965 seconds
#
# Revision: 1
# Processed by: cddbd v1.5.2PL0 Copyright (c) Steve Scherf et al.
# Submitted via: ExactAudioCopy v1.0b3
#
DISCID=760b9309
DTITLE=Secret Oyster - Sea Son
DYEAR=1974
DGENRE=Jazz
TTITLE0=Oysterjungle
TTITLE1=Mind Movie
TTITLE2=Pajamamafia
TTITLE3=Black Mist
TTITLE4=Painforest
TTITLE5=Paella
TTITLE6=Sea Son
TTITLE7=Alfresco Part I
TTITLE8=Alfresco Part II
EXTD=YEAR: 1974
EXTT0=
EXTT1=
EXTT2=
EXTT3=
EXTT4=
EXTT5=
EXTT6=
EXTT7=
EXTT8=
PLAYORDER=
